<mxfile host="app.diagrams.net" modified="2024-06-25T03:01:04.909Z" agent="Mozilla/5.0 (Windows NT 10.0; Win64; x64) AppleWebKit/537.36 (KHTML, like Gecko) Chrome/124.0.0.0 Safari/537.36" etag="NCycObVkrvLEO8_PH-Ms" version="24.6.2" type="onedrive" pages="2">
  <diagram name="페이지-1" id="yqRvX1OuCHYJTOkS9bNN">
    <mxGraphModel grid="1" page="1" gridSize="10" guides="1" tooltips="1" connect="1" arrows="1" fold="1" pageScale="1" pageWidth="827" pageHeight="1169" math="0" shadow="0">
      <root>
        <mxCell id="0" />
        <mxCell id="1" parent="0" />
        <mxCell id="b-f97INTa11XTr_-paEQ-9" value="" style="rounded=0;whiteSpace=wrap;html=1;" vertex="1" parent="1">
          <mxGeometry x="510" width="270" height="370" as="geometry" />
        </mxCell>
        <mxCell id="b-f97INTa11XTr_-paEQ-10" value="&lt;span style=&quot;font-size: 24px;&quot;&gt;Results&lt;/span&gt;" style="rounded=0;whiteSpace=wrap;html=1;" vertex="1" parent="1">
          <mxGeometry x="560" y="5" width="157.5" height="40" as="geometry" />
        </mxCell>
        <mxCell id="b-f97INTa11XTr_-paEQ-11" value="Here are your game results" style="rounded=0;whiteSpace=wrap;html=1;" vertex="1" parent="1">
          <mxGeometry x="545" y="55" width="200" height="30" as="geometry" />
        </mxCell>
        <mxCell id="b-f97INTa11XTr_-paEQ-13" value="&lt;font style=&quot;font-size: 18px;&quot;&gt;Dismiss&lt;/font&gt;" style="rounded=0;whiteSpace=wrap;html=1;" vertex="1" parent="1">
          <mxGeometry x="595" y="330" width="100" height="30" as="geometry" />
        </mxCell>
        <mxCell id="b-f97INTa11XTr_-paEQ-20" value="" style="rounded=0;whiteSpace=wrap;html=1;" vertex="1" parent="1">
          <mxGeometry x="520" y="100" width="250" height="60" as="geometry" />
        </mxCell>
        <mxCell id="b-f97INTa11XTr_-paEQ-21" value="Right&amp;nbsp;" style="rounded=0;whiteSpace=wrap;html=1;" vertex="1" parent="1">
          <mxGeometry x="520" y="100" width="70" height="60" as="geometry" />
        </mxCell>
        <mxCell id="JQcDmOJBhlWZ3hepFA_i-9" value="" style="rounded=0;whiteSpace=wrap;html=1;" vertex="1" parent="1">
          <mxGeometry y="330" width="420" height="340" as="geometry" />
        </mxCell>
        <mxCell id="JQcDmOJBhlWZ3hepFA_i-10" value="&lt;span style=&quot;font-size: 17px;&quot;&gt;What team does this mascot belong to?&lt;/span&gt;" style="rounded=0;whiteSpace=wrap;html=1;" vertex="1" parent="1">
          <mxGeometry x="10" y="390" width="400" height="30" as="geometry" />
        </mxCell>
        <mxCell id="2iw-JXAOn0ELJmdQw6GL-2" value="&lt;font style=&quot;font-size: 24px;&quot;&gt;Stadium+Mascot Quiz&lt;/font&gt;" style="rounded=0;whiteSpace=wrap;html=1;" vertex="1" parent="1">
          <mxGeometry x="10" y="220" width="380" height="30" as="geometry" />
        </mxCell>
        <mxCell id="2iw-JXAOn0ELJmdQw6GL-6" value="" style="rounded=0;whiteSpace=wrap;html=1;" vertex="1" parent="1">
          <mxGeometry width="400" height="290" as="geometry" />
        </mxCell>
        <mxCell id="2iw-JXAOn0ELJmdQw6GL-7" value="&lt;font style=&quot;font-size: 24px;&quot;&gt;Stadium+Mascot Quiz&lt;/font&gt;" style="rounded=0;whiteSpace=wrap;html=1;" vertex="1" parent="1">
          <mxGeometry x="10" y="10" width="380" height="30" as="geometry" />
        </mxCell>
        <mxCell id="2iw-JXAOn0ELJmdQw6GL-8" value="&lt;font style=&quot;font-size: 36px;&quot;&gt;Some explain&amp;nbsp;&lt;/font&gt;&lt;div&gt;&lt;font style=&quot;font-size: 36px;&quot;&gt;about&amp;nbsp; Quiz&amp;nbsp;&lt;/font&gt;&lt;/div&gt;" style="rounded=0;whiteSpace=wrap;html=1;" vertex="1" parent="1">
          <mxGeometry x="10" y="50" width="380" height="150" as="geometry" />
        </mxCell>
        <mxCell id="2iw-JXAOn0ELJmdQw6GL-9" value="&lt;span style=&quot;font-size: 18px;&quot;&gt;Typing how many rounds&amp;nbsp;&lt;/span&gt;&lt;div&gt;&lt;span style=&quot;font-size: 18px;&quot;&gt;you want&lt;/span&gt;&lt;/div&gt;" style="rounded=0;whiteSpace=wrap;html=1;" vertex="1" parent="1">
          <mxGeometry x="10" y="210" width="260" height="60" as="geometry" />
        </mxCell>
        <mxCell id="2iw-JXAOn0ELJmdQw6GL-10" value="&lt;span style=&quot;font-size: 18px;&quot;&gt;Start&lt;/span&gt;" style="rounded=0;whiteSpace=wrap;html=1;" vertex="1" parent="1">
          <mxGeometry x="280" y="210" width="110" height="60" as="geometry" />
        </mxCell>
        <UserObject label="&lt;b style=&quot;font-weight:normal;&quot; id=&quot;docs-internal-guid-83566680-7fff-1d35-c393-2da789ce0250&quot;&gt;&lt;img width=&quot;305px;&quot; height=&quot;246px;&quot; src=&quot;https://lh7-us.googleusercontent.com/XCB_E3hQbMpxysL9zACt6B7SENqmEIHfnB5hMlwr2ymR6BKWmcMHPKCc3GlZkQezQqXCnO3aWTHhWHviCAiNlSkDcxU4lkiNVlyzWrOrj5U9gGLzzTBOk2U_wknGLQ9m6tXa9fmxrsWb62ih5xbvM4GcUQ=s2048&quot;&gt;&lt;/b&gt;" link="&lt;b style=&quot;font-weight:normal;&quot; id=&quot;docs-internal-guid-83566680-7fff-1d35-c393-2da789ce0250&quot;&gt;&lt;img width=&quot;305px;&quot; height=&quot;246px;&quot; src=&quot;https://lh7-us.googleusercontent.com/XCB_E3hQbMpxysL9zACt6B7SENqmEIHfnB5hMlwr2ymR6BKWmcMHPKCc3GlZkQezQqXCnO3aWTHhWHviCAiNlSkDcxU4lkiNVlyzWrOrj5U9gGLzzTBOk2U_wknGLQ9m6tXa9fmxrsWb62ih5xbvM4GcUQ=s2048&quot;&gt;&lt;/b&gt;" id="2iw-JXAOn0ELJmdQw6GL-11">
          <mxCell style="text;whiteSpace=wrap;html=1;" vertex="1" parent="1">
            <mxGeometry x="484" y="410" width="340" height="270" as="geometry" />
          </mxCell>
        </UserObject>
        <mxCell id="2iw-JXAOn0ELJmdQw6GL-12" value="&lt;font style=&quot;font-size: 24px;&quot;&gt;Round # of #&lt;/font&gt;" style="rounded=0;whiteSpace=wrap;html=1;" vertex="1" parent="1">
          <mxGeometry x="10" y="340" width="400" height="40" as="geometry" />
        </mxCell>
        <mxCell id="2iw-JXAOn0ELJmdQw6GL-16" value="&lt;span style=&quot;font-size: 18px;&quot;&gt;2 Team name&lt;/span&gt;" style="rounded=0;whiteSpace=wrap;html=1;" vertex="1" parent="1">
          <mxGeometry x="220" y="460" width="190" height="55" as="geometry" />
        </mxCell>
        <mxCell id="y0r5tutsLmamROyHlrDG-3" value="&lt;span style=&quot;font-size: 18px;&quot;&gt;1 Team name&lt;/span&gt;" style="rounded=0;whiteSpace=wrap;html=1;" vertex="1" parent="1">
          <mxGeometry x="10" y="460" width="190" height="55" as="geometry" />
        </mxCell>
        <mxCell id="y0r5tutsLmamROyHlrDG-4" value="&lt;span style=&quot;font-size: 18px;&quot;&gt;3 Team name&lt;/span&gt;" style="rounded=0;whiteSpace=wrap;html=1;" vertex="1" parent="1">
          <mxGeometry x="10" y="540" width="190" height="55" as="geometry" />
        </mxCell>
        <mxCell id="y0r5tutsLmamROyHlrDG-5" value="&lt;span style=&quot;font-size: 18px;&quot;&gt;4 Team name&lt;/span&gt;" style="rounded=0;whiteSpace=wrap;html=1;" vertex="1" parent="1">
          <mxGeometry x="220" y="540" width="190" height="55" as="geometry" />
        </mxCell>
        <mxCell id="y0r5tutsLmamROyHlrDG-6" value="&lt;span style=&quot;font-size: 18px;&quot;&gt;Results&lt;/span&gt;" style="rounded=0;whiteSpace=wrap;html=1;" vertex="1" parent="1">
          <mxGeometry x="10" y="615" width="80" height="45" as="geometry" />
        </mxCell>
        <mxCell id="mZ_bTUkZMpHkju7xPMQD-3" value="" style="rounded=0;whiteSpace=wrap;html=1;" vertex="1" parent="1">
          <mxGeometry x="520" y="180" width="250" height="60" as="geometry" />
        </mxCell>
        <mxCell id="mZ_bTUkZMpHkju7xPMQD-4" value="Wrong" style="rounded=0;whiteSpace=wrap;html=1;" vertex="1" parent="1">
          <mxGeometry x="520" y="180" width="70" height="60" as="geometry" />
        </mxCell>
        <mxCell id="mZ_bTUkZMpHkju7xPMQD-5" value="" style="rounded=0;whiteSpace=wrap;html=1;" vertex="1" parent="1">
          <mxGeometry x="520" y="260" width="250" height="60" as="geometry" />
        </mxCell>
        <mxCell id="mZ_bTUkZMpHkju7xPMQD-6" value="Comment" style="rounded=0;whiteSpace=wrap;html=1;" vertex="1" parent="1">
          <mxGeometry x="520" y="260" width="70" height="60" as="geometry" />
        </mxCell>
        <mxCell id="7-jUrYsX71BHV4eObPBn-1" value="&lt;span style=&quot;font-size: 18px;&quot;&gt;Help&lt;/span&gt;" style="rounded=0;whiteSpace=wrap;html=1;" vertex="1" parent="1">
          <mxGeometry x="112" y="615" width="80" height="45" as="geometry" />
        </mxCell>
        <mxCell id="7-jUrYsX71BHV4eObPBn-2" value="&lt;span style=&quot;font-size: 18px;&quot;&gt;Start Over&lt;/span&gt;" style="rounded=0;whiteSpace=wrap;html=1;" vertex="1" parent="1">
          <mxGeometry x="218" y="615" width="92" height="45" as="geometry" />
        </mxCell>
        <mxCell id="7-jUrYsX71BHV4eObPBn-3" value="&lt;span style=&quot;font-size: 18px;&quot;&gt;Next&lt;/span&gt;" style="rounded=0;whiteSpace=wrap;html=1;" vertex="1" parent="1">
          <mxGeometry x="330" y="615" width="80" height="45" as="geometry" />
        </mxCell>
        <mxCell id="yDNOKow_PtmWA5tdwUY6-1" value="&lt;span style=&quot;font-size: 17px;&quot;&gt;Mascot name&lt;/span&gt;" style="rounded=0;whiteSpace=wrap;html=1;" vertex="1" parent="1">
          <mxGeometry x="10" y="425" width="400" height="30" as="geometry" />
        </mxCell>
      </root>
    </mxGraphModel>
  </diagram>
  <diagram id="wn6yNNiTu58nyX3tLmZb" name="페이지-2">
    <mxGraphModel grid="1" page="1" gridSize="10" guides="1" tooltips="1" connect="1" arrows="1" fold="1" pageScale="1" pageWidth="827" pageHeight="1169" math="0" shadow="0">
      <root>
        <mxCell id="0" />
        <mxCell id="1" parent="0" />
        <mxCell id="0SPonz6k2ziUAwfsFKvU-1" value="" style="rounded=0;whiteSpace=wrap;html=1;" vertex="1" parent="1">
          <mxGeometry x="140" y="50" width="420" height="460" as="geometry" />
        </mxCell>
        <mxCell id="0SPonz6k2ziUAwfsFKvU-2" value="&lt;span style=&quot;font-size: 17px;&quot;&gt;What team does this mascot belong to(&lt;/span&gt;&lt;font style=&quot;font-size: 11px;&quot;&gt;Mascot name&lt;/font&gt;&lt;font style=&quot;font-size: 17px;&quot;&gt;)?&lt;/font&gt;" style="rounded=0;whiteSpace=wrap;html=1;" vertex="1" parent="1">
          <mxGeometry x="150" y="120" width="400" height="30" as="geometry" />
        </mxCell>
        <mxCell id="0SPonz6k2ziUAwfsFKvU-3" value="&lt;font style=&quot;font-size: 24px;&quot;&gt;Round # of #&lt;/font&gt;" style="rounded=0;whiteSpace=wrap;html=1;" vertex="1" parent="1">
          <mxGeometry x="150" y="60" width="400" height="40" as="geometry" />
        </mxCell>
        <mxCell id="0SPonz6k2ziUAwfsFKvU-4" value="&lt;span style=&quot;font-size: 18px;&quot;&gt;2 Team name&lt;/span&gt;" style="rounded=0;whiteSpace=wrap;html=1;" vertex="1" parent="1">
          <mxGeometry x="360" y="180" width="190" height="55" as="geometry" />
        </mxCell>
        <mxCell id="0SPonz6k2ziUAwfsFKvU-5" value="&lt;span style=&quot;font-size: 18px;&quot;&gt;1 Team name&lt;/span&gt;" style="rounded=0;whiteSpace=wrap;html=1;" vertex="1" parent="1">
          <mxGeometry x="150" y="180" width="190" height="55" as="geometry" />
        </mxCell>
        <mxCell id="0SPonz6k2ziUAwfsFKvU-6" value="&lt;span style=&quot;font-size: 18px;&quot;&gt;3 Team name&lt;/span&gt;" style="rounded=0;whiteSpace=wrap;html=1;" vertex="1" parent="1">
          <mxGeometry x="150" y="260" width="190" height="55" as="geometry" />
        </mxCell>
        <mxCell id="0SPonz6k2ziUAwfsFKvU-7" value="&lt;span style=&quot;font-size: 18px;&quot;&gt;4 Team name&lt;/span&gt;" style="rounded=0;whiteSpace=wrap;html=1;" vertex="1" parent="1">
          <mxGeometry x="360" y="260" width="190" height="55" as="geometry" />
        </mxCell>
        <mxCell id="0SPonz6k2ziUAwfsFKvU-8" value="&lt;span style=&quot;font-size: 18px;&quot;&gt;Results&lt;/span&gt;" style="rounded=0;whiteSpace=wrap;html=1;" vertex="1" parent="1">
          <mxGeometry x="150" y="440" width="120" height="45" as="geometry" />
        </mxCell>
        <mxCell id="0SPonz6k2ziUAwfsFKvU-9" value="&lt;span style=&quot;font-size: 18px;&quot;&gt;Help&lt;/span&gt;" style="rounded=0;whiteSpace=wrap;html=1;" vertex="1" parent="1">
          <mxGeometry x="280" y="440" width="112" height="45" as="geometry" />
        </mxCell>
        <mxCell id="0SPonz6k2ziUAwfsFKvU-10" value="&lt;span style=&quot;font-size: 18px;&quot;&gt;Start Over&lt;/span&gt;" style="rounded=0;whiteSpace=wrap;html=1;" vertex="1" parent="1">
          <mxGeometry x="400" y="440" width="142" height="45" as="geometry" />
        </mxCell>
        <mxCell id="0SPonz6k2ziUAwfsFKvU-11" value="&lt;span style=&quot;font-size: 18px;&quot;&gt;Next Round&lt;/span&gt;" style="rounded=0;whiteSpace=wrap;html=1;fillColor=#dae8fc;strokeColor=#6c8ebf;" vertex="1" parent="1">
          <mxGeometry x="150" y="334" width="400" height="45" as="geometry" />
        </mxCell>
        <mxCell id="0SPonz6k2ziUAwfsFKvU-13" value="&lt;font style=&quot;font-size: 18px;&quot;&gt;Current Score: 3 / 5&lt;/font&gt;" style="text;html=1;align=center;verticalAlign=middle;whiteSpace=wrap;rounded=0;" vertex="1" parent="1">
          <mxGeometry x="180" y="390" width="330" height="30" as="geometry" />
        </mxCell>
        <mxCell id="0SPonz6k2ziUAwfsFKvU-14" value="" style="line;strokeWidth=2;html=1;strokeColor=#FF3333;" vertex="1" parent="1">
          <mxGeometry x="-20" y="100" width="680" height="10" as="geometry" />
        </mxCell>
        <mxCell id="0SPonz6k2ziUAwfsFKvU-16" value="" style="line;strokeWidth=2;html=1;strokeColor=#FF3333;" vertex="1" parent="1">
          <mxGeometry y="160" width="680" height="10" as="geometry" />
        </mxCell>
        <mxCell id="0SPonz6k2ziUAwfsFKvU-17" value="" style="line;strokeWidth=2;html=1;strokeColor=#FF3333;" vertex="1" parent="1">
          <mxGeometry x="-4" y="325" width="680" height="10" as="geometry" />
        </mxCell>
        <mxCell id="0SPonz6k2ziUAwfsFKvU-18" value="" style="line;strokeWidth=2;html=1;strokeColor=#FF3333;" vertex="1" parent="1">
          <mxGeometry x="-4" y="380" width="680" height="10" as="geometry" />
        </mxCell>
        <mxCell id="0SPonz6k2ziUAwfsFKvU-19" value="" style="line;strokeWidth=2;html=1;strokeColor=#FF3333;" vertex="1" parent="1">
          <mxGeometry x="5" y="420" width="680" height="10" as="geometry" />
        </mxCell>
        <mxCell id="0SPonz6k2ziUAwfsFKvU-20" value="row 0" style="rounded=0;whiteSpace=wrap;html=1;fillColor=#fff2cc;strokeColor=#d6b656;" vertex="1" parent="1">
          <mxGeometry x="5" y="60" width="120" height="30" as="geometry" />
        </mxCell>
        <mxCell id="0SPonz6k2ziUAwfsFKvU-22" value="rounds frame" style="rounded=0;whiteSpace=wrap;html=1;fillColor=#fff2cc;strokeColor=#d6b656;" vertex="1" parent="1">
          <mxGeometry x="-140" y="60" width="120" height="30" as="geometry" />
        </mxCell>
        <mxCell id="0SPonz6k2ziUAwfsFKvU-23" value="row 1" style="rounded=0;whiteSpace=wrap;html=1;fillColor=#fff2cc;strokeColor=#d6b656;" vertex="1" parent="1">
          <mxGeometry x="5" y="120" width="120" height="30" as="geometry" />
        </mxCell>
        <mxCell id="0SPonz6k2ziUAwfsFKvU-25" value="row 2" style="rounded=0;whiteSpace=wrap;html=1;fillColor=#fff2cc;strokeColor=#d6b656;" vertex="1" parent="1">
          <mxGeometry x="20" y="192.5" width="120" height="30" as="geometry" />
        </mxCell>
        <mxCell id="0SPonz6k2ziUAwfsFKvU-26" value="ans_frame" style="rounded=0;whiteSpace=wrap;html=1;fillColor=#d5e8d4;strokeColor=#82b366;" vertex="1" parent="1">
          <mxGeometry x="20" y="230" width="115" height="30" as="geometry" />
        </mxCell>
        <mxCell id="0SPonz6k2ziUAwfsFKvU-27" value="row 0, col 0" style="rounded=0;whiteSpace=wrap;html=1;fillColor=#d5e8d4;strokeColor=#82b366;" vertex="1" parent="1">
          <mxGeometry x="200" y="222.5" width="120" height="30" as="geometry" />
        </mxCell>
        <mxCell id="0SPonz6k2ziUAwfsFKvU-28" value="row 0, col 1" style="rounded=0;whiteSpace=wrap;html=1;fillColor=#d5e8d4;strokeColor=#82b366;" vertex="1" parent="1">
          <mxGeometry x="392" y="222.5" width="120" height="30" as="geometry" />
        </mxCell>
        <mxCell id="0SPonz6k2ziUAwfsFKvU-29" value="row 1, col 0" style="rounded=0;whiteSpace=wrap;html=1;fillColor=#d5e8d4;strokeColor=#82b366;" vertex="1" parent="1">
          <mxGeometry x="210" y="295" width="120" height="30" as="geometry" />
        </mxCell>
        <mxCell id="0SPonz6k2ziUAwfsFKvU-30" value="row 1, col 1" style="rounded=0;whiteSpace=wrap;html=1;fillColor=#d5e8d4;strokeColor=#82b366;" vertex="1" parent="1">
          <mxGeometry x="390" y="295" width="120" height="30" as="geometry" />
        </mxCell>
        <mxCell id="0SPonz6k2ziUAwfsFKvU-31" value="row 3" style="rounded=0;whiteSpace=wrap;html=1;fillColor=#fff2cc;strokeColor=#d6b656;" vertex="1" parent="1">
          <mxGeometry x="20" y="343" width="120" height="30" as="geometry" />
        </mxCell>
        <mxCell id="0SPonz6k2ziUAwfsFKvU-32" style="edgeStyle=orthogonalEdgeStyle;rounded=0;orthogonalLoop=1;jettySize=auto;html=1;exitX=0.5;exitY=1;exitDx=0;exitDy=0;" edge="1" parent="1" source="0SPonz6k2ziUAwfsFKvU-26" target="0SPonz6k2ziUAwfsFKvU-26">
          <mxGeometry relative="1" as="geometry" />
        </mxCell>
        <mxCell id="0SPonz6k2ziUAwfsFKvU-33" value="row 5" style="rounded=0;whiteSpace=wrap;html=1;fillColor=#fff2cc;strokeColor=#d6b656;" vertex="1" parent="1">
          <mxGeometry x="15" y="447.5" width="120" height="30" as="geometry" />
        </mxCell>
        <mxCell id="0SPonz6k2ziUAwfsFKvU-34" value="row 4" style="rounded=0;whiteSpace=wrap;html=1;fillColor=#fff2cc;strokeColor=#d6b656;" vertex="1" parent="1">
          <mxGeometry x="17.5" y="390" width="120" height="30" as="geometry" />
        </mxCell>
      </root>
    </mxGraphModel>
  </diagram>
</mxfile>
